<?xml version="1.0" encoding="UTF-8" standalone="no"?>
<!-- Created with Inkscape (http://www.inkscape.org/) -->

<svg
   xmlns:dc="http://purl.org/dc/elements/1.1/"
   xmlns:cc="http://creativecommons.org/ns#"
   xmlns:rdf="http://www.w3.org/1999/02/22-rdf-syntax-ns#"
   xmlns:svg="http://www.w3.org/2000/svg"
   xmlns="http://www.w3.org/2000/svg"
   xmlns:sodipodi="http://sodipodi.sourceforge.net/DTD/sodipodi-0.dtd"
   xmlns:inkscape="http://www.inkscape.org/namespaces/inkscape"
   width="210mm"
   height="297mm"
   viewBox="0 0 744.09448819 1052.3622047"
   id="svg4185"
   version="1.1"
   inkscape:version="0.91 r13725"
   sodipodi:docname="scoops-icon.svg">
  <defs
     id="defs4187" />
  <sodipodi:namedview
     id="base"
     pagecolor="#ffffff"
     bordercolor="#666666"
     borderopacity="1.0"
     inkscape:pageopacity="0.0"
     inkscape:pageshadow="2"
     inkscape:zoom="0.98994949"
     inkscape:cx="298.84572"
     inkscape:cy="353.6727"
     inkscape:document-units="px"
     inkscape:current-layer="layer1"
     showgrid="false"
     inkscape:window-width="1707"
     inkscape:window-height="937"
     inkscape:window-x="-8"
     inkscape:window-y="-8"
     inkscape:window-maximized="1" />
  <metadata
     id="metadata4190">
    <rdf:RDF>
      <cc:Work
         rdf:about="">
        <dc:format>image/svg+xml</dc:format>
        <dc:type
           rdf:resource="http://purl.org/dc/dcmitype/StillImage" />
        <dc:title></dc:title>
      </cc:Work>
    </rdf:RDF>
  </metadata>
  <g
     inkscape:label="Layer 1"
     inkscape:groupmode="layer"
     id="layer1">
    <path
       transform="matrix(0,1,-1,0,0,0)"
       sodipodi:open="true"
       style="fill:#ffc5d9;fill-opacity:1;stroke:#000000;stroke-width:4.5;stroke-linecap:butt;stroke-linejoin:bevel;stroke-miterlimit:4;stroke-dasharray:none;stroke-dashoffset:162.99998474"
       id="path5192"
       sodipodi:type="arc"
       sodipodi:cx="501.50964"
       sodipodi:cy="-372.57071"
       sodipodi:rx="50.336933"
       sodipodi:ry="50.336933"
       sodipodi:start="0"
       sodipodi:end="6.274762"
       d="m 551.84658,-372.57071 a 50.336933,50.336933 0 0 1 -50.23094,50.33682 50.336933,50.336933 0 0 1 -50.44248,-50.12482 50.336933,50.336933 0 0 1 50.01848,-50.54793 50.336933,50.336933 0 0 1 50.65315,49.91193" />
    <path
       style="fill:#ff0017;fill-opacity:1;fill-rule:evenodd;stroke:#000000;stroke-width:2.33299994;stroke-linecap:butt;stroke-linejoin:miter;stroke-miterlimit:4;stroke-dasharray:none;stroke-opacity:1"
       d="m 283.49878,521.68452 c 6.8915,-35.52953 181.01688,-30.16947 183.31398,-0.45943 -0.6126,18.98992 -53.60057,29.71003 -87.29237,28.02544 -38.43928,1.3783 -95.71532,-8.2698 -96.02161,-27.56601 z"
       id="path5160"
       inkscape:connector-curvature="0"
       sodipodi:nodetypes="cccc" />
    <path
       d="m 583.80959,-406.68179 a 50.336933,50.336933 0 0 1 -50.23093,50.33682 50.336933,50.336933 0 0 1 -50.44249,-50.12482 50.336933,50.336933 0 0 1 50.01849,-50.54793 50.336933,50.336933 0 0 1 50.65314,49.91193"
       sodipodi:end="6.274762"
       sodipodi:start="0"
       sodipodi:ry="50.336933"
       sodipodi:rx="50.336933"
       sodipodi:cy="-406.68179"
       sodipodi:cx="533.47266"
       sodipodi:type="arc"
       id="path5110"
       style="fill:#ffffff;fill-opacity:1;stroke:#000000;stroke-width:4.5;stroke-linecap:butt;stroke-linejoin:bevel;stroke-miterlimit:4;stroke-dasharray:none;stroke-dashoffset:162.99998474"
       sodipodi:open="true"
       transform="matrix(0,1,-1,0,0,0)" />
    <path
       style="fill:#6b3e26;fill-opacity:1;stroke:#000000;stroke-width:4.5;stroke-linecap:butt;stroke-linejoin:bevel;stroke-miterlimit:4;stroke-dasharray:none;stroke-dashoffset:162.99998474"
       id="path4568"
       sodipodi:type="arc"
       sodipodi:cx="535.32452"
       sodipodi:cy="-340.8588"
       sodipodi:rx="50.336933"
       sodipodi:ry="50.336933"
       sodipodi:start="0"
       sodipodi:end="6.2749522"
       d="m 585.66146,-340.8588 a 50.336933,50.336933 0 0 1 -50.23333,50.33683 50.336933,50.336933 0 0 1 -50.44011,-50.12961 50.336933,50.336933 0 0 1 50.02568,-50.54319 50.336933,50.336933 0 0 1 50.64605,49.92155"
       transform="matrix(0,1,-1,0,0,0)"
       sodipodi:open="true" />
    <path
       style="fill:#ff0017;fill-opacity:1;fill-rule:evenodd;stroke:#000000;stroke-width:2.30518603;stroke-linecap:butt;stroke-linejoin:miter;stroke-miterlimit:4;stroke-dasharray:none;stroke-opacity:1"
       d="m 284.3189,524.02412 c -0.61325,31.56914 25.90945,82.73291 91.98621,84.9101 72.51581,-2.31326 85.24055,-56.87888 90.60645,-85.72654 -2.453,24.22115 -161.28253,34.97099 -182.59266,0.81644 z"
       id="path5162"
       inkscape:connector-curvature="0"
       sodipodi:nodetypes="cccc" />
  </g>
</svg>
